<svg width="33" height="33" viewBox="0 0 33 33" fill="none" xmlns="http://www.w3.org/2000/svg">
<path d="M32.4974 19.8939C30.3605 28.4654 21.679 33.6819 13.1064 31.5444C4.53751 29.4075 -0.678941 20.7254 1.45891 12.1546C3.59489 3.58214 12.2764 -1.6347 20.8463 0.502212C29.4182 2.63913 34.6344 11.3222 32.4972 19.8941L32.4974 19.8939H32.4974Z" fill="#F7931A"/>
<path d="M24.0554 13.7204C24.3738 11.5912 22.7528 10.4466 20.5361 9.68311L21.2552 6.79886L19.4994 6.36137L18.7994 9.16969C18.3378 9.05457 17.8638 8.94609 17.3927 8.83856L18.0978 6.01171L16.3432 5.57422L15.6237 8.45754C15.2417 8.37057 14.8666 8.28462 14.5026 8.19406L14.5046 8.18499L12.0834 7.58037L11.6164 9.45561C11.6164 9.45561 12.919 9.7542 12.8915 9.77258C13.6025 9.95003 13.7311 10.4207 13.7097 10.7937L12.8906 14.0796C12.9396 14.092 13.0031 14.11 13.0731 14.1381C13.0146 14.1236 12.9522 14.1077 12.8876 14.0922L11.7394 18.6952C11.6525 18.9113 11.432 19.2354 10.9349 19.1123C10.9525 19.1378 9.6588 18.7939 9.6588 18.7939L8.78711 20.8036L11.0719 21.3732C11.497 21.4798 11.9135 21.5913 12.3237 21.6962L11.5971 24.6135L13.3509 25.051L14.0704 22.1646C14.5494 22.2947 15.0144 22.4147 15.4695 22.5278L14.7525 25.4005L16.5083 25.838L17.2347 22.9261C20.2286 23.4927 22.4798 23.2643 23.4274 20.5563C24.1909 18.3761 23.3894 17.1185 21.8143 16.2984C22.9615 16.0339 23.8256 15.2793 24.056 13.7207L24.0555 13.7203L24.0554 13.7204ZM20.0439 19.3455C19.5013 21.5258 15.8305 20.3472 14.6403 20.0517L15.6045 16.1867C16.7945 16.4838 20.611 17.0718 20.044 19.3455H20.0439ZM20.5869 13.6889C20.0919 15.672 17.0366 14.6645 16.0455 14.4174L16.9197 10.9121C17.9108 11.1592 21.1025 11.6203 20.5871 13.6889H20.5869Z" fill="white"/>
</svg>
