<svg width="28" height="32" viewBox="0 0 28 32" fill="none" xmlns="http://www.w3.org/2000/svg">
<path d="M17.1935 31.9677C17.8358 29.6121 18.4333 27.4146 19.0459 25.2168C16.9992 24.3629 14.9676 23.5566 12.9805 22.6716C11.6509 22.0708 10.3511 21.4069 9.09647 20.6796C8.69322 20.4425 8.36435 19.9208 8.14032 19.4622C7.76688 18.6402 7.49795 17.7548 7.21392 16.9959C6.64624 17.1065 6.10836 17.1699 5.6006 17.3121C5.42141 17.3596 5.16723 17.5492 5.13742 17.7073C4.95823 18.6717 4.70405 19.6677 4.73416 20.6321C4.77904 21.8812 5.12266 23.0984 5.86957 24.2683C6.55681 23.2407 7.19917 22.2919 7.85658 21.3434C7.91621 21.375 7.99089 21.4225 8.05082 21.454C7.49819 22.6396 6.93053 23.8096 6.33272 25.0902C9.17112 27.7148 12.4728 29.5962 15.7894 31.9202H0.431744C0.924738 31.0508 1.32799 30.276 1.80622 29.5487C2.10497 29.09 2.09022 28.7739 1.76135 28.3156C-0.927705 24.3948 -0.509378 19.4149 2.82205 16.237C3.82307 15.2885 5.01807 14.5768 6.16851 13.7074C5.61588 11.6679 5.61588 9.50198 5.8547 7.30443C6.30282 3.1621 10.8295 -0.0313433 13.7278 0.000232128C16.3422 0.0317847 18.9565 0.000232126 21.5709 0.0792726C23.3335 0.12676 24.006 0.822192 24.0359 2.43486C24.0359 2.62449 24.0657 2.846 23.9762 2.97252C23.4236 3.71544 23.8269 4.39529 24.0211 5.12259C24.3051 6.18195 24.559 7.25699 24.8279 8.33202C24.8728 8.53758 24.8876 8.74316 24.9324 8.96434C23.9763 9.6126 22.4973 9.66009 22.4973 11.3358C19.5243 12.1106 16.3723 11.6045 13.534 12.98C13.3398 13.075 13.1904 13.2487 12.8766 13.5177C13.1606 13.5177 13.2949 13.5652 13.3696 13.5177C14.3107 12.9169 15.3566 12.9169 16.4022 12.9329C18.2995 12.9488 20.1818 12.9488 22.0791 12.9329C22.4227 12.9329 22.6618 12.9488 22.8112 13.3915C23.1548 14.3559 23.9466 14.5299 24.6636 13.7711C25.0521 13.3599 25.2909 12.7907 25.6346 12.2533C26.0827 12.7276 26.5757 13.2018 27.0091 13.7236C27.6665 14.514 27.5469 15.1782 26.6805 15.7314C25.7394 16.3322 25.7394 16.3322 26.0532 17.4863C26.2176 18.1186 26.5311 18.7828 25.5752 19.178C26.3372 19.5576 26.2625 19.9684 25.8442 20.506C25.6948 20.6956 25.6798 21.0909 25.7246 21.3754C26.0234 23.0196 25.4108 23.826 23.8122 23.826C22.9606 23.826 22.1242 23.7945 21.2726 23.8419C19.8981 23.921 19.3455 24.6639 19.5397 26.1029C19.674 27.1148 19.8237 28.0633 20.3164 29.0117C20.6898 29.7231 20.5853 30.735 20.6449 31.6204C20.66 31.7469 20.376 32 20.2266 32C19.2702 31.9837 18.299 31.9677 17.1935 31.9677Z" fill="#AFB6C4"/>
</svg>
