<svg width="28" height="32" viewBox="0 0 28 32" fill="none" xmlns="http://www.w3.org/2000/svg">
<path d="M13.7063 4.3583L14.2171 4.43198L13.8426 6.96072L16.4357 7.3334L16.8101 4.80467L17.3209 4.87809L16.9465 7.40682L19.5395 7.77978L19.9143 5.25104L20.4248 5.32446L20.0503 7.85319L22.8742 8.25913L23.6088 3.29931L11.2426 1.52129L10.5082 6.48111L13.3318 6.88705L13.7063 4.3583Z" fill="#AFB6C4"/>
<path d="M21.1199 2.42761L21.3256 1.0409L14.0855 0L13.88 1.38644L21.1199 2.42761Z" fill="#AFB6C4"/>
<path d="M12.0586 15.4796L12.5694 15.553L12.195 18.082L14.7881 18.455L15.1628 15.926L15.6733 15.9997L15.2988 18.5284L17.8919 18.9011L18.2666 16.3724L18.7774 16.4458L18.4027 18.9748L21.2265 19.3807L21.9754 14.323L9.60924 12.5447L8.86007 17.6026L11.6839 18.0086L12.0586 15.4796Z" fill="#AFB6C4"/>
<path d="M11.2355 21.0406L11.7463 21.114L11.3716 23.643L13.9649 24.016L14.3393 21.487L14.8501 21.5604L14.4756 24.0894L17.0687 24.4621L17.4432 21.9331L17.9539 22.0068L17.5795 24.5358L20.4031 24.9417L21.1522 19.884L8.78605 18.106L8.03687 23.1637L10.8607 23.5696L11.2355 21.0406Z" fill="#AFB6C4"/>
<path d="M12.8825 9.91862L13.3932 9.9923L13.0185 12.521L15.6118 12.8937L15.9863 10.365L16.497 10.4384L16.1226 12.9674L18.7157 13.3404L19.0901 10.8114L19.6009 10.8848L19.2264 13.4135L22.05 13.8197L22.7992 8.76176L10.433 6.98376L9.68382 12.0415L12.5074 12.4474L12.8825 9.91862Z" fill="#AFB6C4"/>
<path d="M10.3799 26.6602L10.8907 26.7336L10.5683 28.909H13.2167L13.4837 27.1062L13.9945 27.1799L13.7386 28.909H16.3867L16.5878 27.5526L17.0983 27.6263L16.9085 28.909H19.8155L20.3284 25.4445L7.96224 23.6665L7.18584 28.909H10.0465L10.3799 26.6602Z" fill="#AFB6C4"/>
<path d="M0 29.4175H28V32H0V29.4175Z" fill="#AFB6C4"/>
</svg>
