<svg width="16" height="32" viewBox="0 0 16 32" fill="none" xmlns="http://www.w3.org/2000/svg">
<path d="M2.42801 32H13.208C14.552 32 15.636 30.916 15.636 29.572V2.41992C15.636 1.084 14.552 0 13.208 0H2.42801C1.08401 0 1.04839e-05 1.084 1.04839e-05 2.41992V29.5677C-0.00389579 30.9159 1.08429 31.9999 2.42801 31.9999V32ZM7.81614 31.2399C7.14427 31.2399 6.60407 30.7 6.60407 30.0279C6.60407 29.3638 7.14397 28.8158 7.81614 28.8158C8.48801 28.8158 9.0282 29.3599 9.0282 30.0279C9.0282 30.7 8.48803 31.2399 7.81614 31.2399ZM13.2201 1.59214C13.464 1.59214 13.6601 1.78801 13.6601 2.03215C13.6601 2.27602 13.4643 2.47217 13.2201 2.47217C12.9802 2.47217 12.7801 2.2763 12.7801 2.03215C12.7801 1.78801 12.9802 1.59214 13.2201 1.59214ZM5.73228 1.71993H9.90027C10.0763 1.71993 10.2122 1.8639 10.2122 2.03187C10.2122 2.20793 10.0722 2.34382 9.90027 2.34382L5.73228 2.3441C5.55623 2.3441 5.42034 2.20403 5.42034 2.03215C5.42034 1.86418 5.55622 1.71993 5.73228 1.71993V1.71993ZM1.00822 3.81621H14.6239V28.1883H1.00822V3.81621Z" fill="white"/>
</svg>
