<svg width="24" height="32" viewBox="0 0 24 32" fill="none" xmlns="http://www.w3.org/2000/svg">
<path d="M24 3.92004V30.36C24 30.6398 23.7726 30.86 23.4946 30.86H22.6556C22.6909 30.7 22.7062 30.5301 22.7062 30.36V3.92004C22.7062 2.46507 21.5136 1.28005 20.043 1.28005H1.65268C1.48071 1.28005 1.30899 1.29497 1.14724 1.33011V0.500077C1.14724 0.225014 1.37466 0 1.65268 0H20.043C22.2211 0 24 1.76016 24 3.92004Z" fill="#AFB6C4"/>
<path d="M13.7413 12.9758H11.3552V14.8139C12.0927 14.8599 12.8078 15.0052 13.4884 15.2447C13.6302 14.5314 13.7158 13.7671 13.7413 12.9758Z" fill="#AFB6C4"/>
<path d="M13.2525 16.2176C12.649 15.9945 12.012 15.8585 11.3557 15.8118V19.1617C12.3277 18.7141 12.9519 17.2413 13.2525 16.2176Z" fill="#AFB6C4"/>
<path d="M10.3446 19.1642V15.8117C9.68539 15.8584 9.04665 15.9943 8.44221 16.2172C8.74504 17.2428 9.36795 18.7216 10.3446 19.1642Z" fill="#AFB6C4"/>
<path d="M13.4872 9.70753C12.8067 9.94626 12.0921 10.0911 11.3556 10.1369V11.9752H13.7414C13.7154 11.1842 13.6293 10.4204 13.4872 9.70753Z" fill="#AFB6C4"/>
<path d="M6.25728 17.5335C6.96583 18.1679 7.73982 18.6095 8.5858 18.9002C8.1003 18.2254 7.7656 17.4459 7.51753 16.6448C7.06949 16.8922 6.64471 17.1855 6.25728 17.5335Z" fill="#AFB6C4"/>
<path d="M14.4343 15.6477C15.0456 15.9586 15.6167 16.3509 16.137 16.8199C17.055 15.7293 17.5984 14.3941 17.7015 12.9752H14.7523C14.7236 13.9087 14.6153 14.8107 14.4343 15.6477Z" fill="#AFB6C4"/>
<path d="M11.3552 5.78994V9.13933C12.0104 9.09265 12.6467 8.95716 13.25 8.73503C12.9496 7.71513 12.325 6.23733 11.3552 5.78994Z" fill="#AFB6C4"/>
<path d="M13.1074 18.9005C13.9886 18.5978 14.7541 18.1449 15.4405 17.5336C15.0514 17.1859 14.6259 16.8928 14.1777 16.6454C13.9286 17.4518 13.5968 18.2222 13.1074 18.9005Z" fill="#AFB6C4"/>
<path d="M14.7519 11.9753H17.7011C17.5963 10.5591 17.0529 9.22681 16.1361 8.1376C15.6154 8.6047 15.0445 8.99554 14.4332 9.30524C14.6144 10.1415 14.7232 11.0427 14.7519 11.9753Z" fill="#AFB6C4"/>
<path d="M15.4406 7.42314C14.7364 6.79333 13.9612 6.34428 13.1045 6.04974C13.5961 6.73247 13.9299 7.51315 14.1757 8.3085C14.6245 8.06183 15.0505 7.76992 15.4406 7.42314Z" fill="#AFB6C4"/>
<path d="M7.94973 11.9753H10.3444V10.1362C9.6113 10.089 8.89347 9.94054 8.20802 9.69893C8.06354 10.4154 7.97599 11.1823 7.94973 11.9753Z" fill="#AFB6C4"/>
<path d="M7.26104 15.6563C7.07764 14.8157 6.96795 13.9104 6.939 12.9752H3.99028C4.09439 14.39 4.64024 15.7249 5.56231 16.8193C6.07602 16.3573 6.64714 15.9675 7.26104 15.6563Z" fill="#AFB6C4"/>
<path d="M20.0429 2.28H1.65254C0.742861 2.28 0 3.01497 0 3.92004V30.36C0 31.265 0.742861 32 1.65254 32H20.0429C20.9525 32 21.6954 31.265 21.6954 30.36V3.92004C21.6954 3.01516 20.9525 2.28 20.0429 2.28ZM10.8446 4.66918L10.8473 4.66894H10.8499C15.225 4.66894 18.7356 8.18991 18.7356 12.4795C18.7356 16.7569 15.2413 20.2814 10.8499 20.2814H10.8482L10.8446 20.2812C6.53636 20.2783 2.95519 16.8179 2.95519 12.4792C2.95543 8.13213 6.54608 4.67226 10.8446 4.66918ZM17.2134 26.0148V27.0147H4.48201V26.0148H17.2134ZM6.85817 24.4181V23.4182H14.8372V24.4181H6.85817ZM18.8884 29.6114H2.80699V28.6115H18.8884V29.6114Z" fill="#AFB6C4"/>
<path d="M7.26229 9.29661C6.6486 8.98666 6.07751 8.59848 5.56305 8.13809C4.64191 9.23186 4.09607 10.5636 3.99052 11.9755H6.93905C6.96848 11.0408 7.07865 10.1367 7.26229 9.29661Z" fill="#AFB6C4"/>
<path d="M8.58798 6.05054C7.69362 6.35785 6.92716 6.82013 6.25728 7.42321C6.64573 7.76999 7.07088 8.06213 7.51921 8.30881C7.76487 7.51703 8.10103 6.72846 8.58798 6.05054Z" fill="#AFB6C4"/>
<path d="M10.3446 9.13952V5.78748C9.3677 6.231 8.74502 7.718 8.44414 8.7355C9.04809 8.95762 9.68608 9.09307 10.3446 9.13952Z" fill="#AFB6C4"/>
<path d="M8.20689 15.2534C8.89259 15.0111 9.61111 14.8621 10.3449 14.8149V12.9758H7.95004C7.97558 13.769 8.06266 14.5365 8.20689 15.2534Z" fill="#AFB6C4"/>
</svg>
