<svg width="32" height="32" viewBox="0 0 32 32" fill="none" xmlns="http://www.w3.org/2000/svg">
<path d="M31.9717 15.9946C31.9717 24.7874 24.8441 31.915 16.0513 31.915C7.25874 31.915 0.130859 24.7874 0.130859 15.9946C0.130859 7.20194 7.25874 0.0742188 16.0513 0.0742188C24.8441 0.0742188 31.9717 7.20194 31.9717 15.9946Z" fill="#1BA27A"/>
<path d="M23.523 8.10205H8.448V11.7415H14.1658V17.0907H17.8052V11.7415H23.523V8.10205Z" fill="white"/>
<path d="M16.0204 17.6608C11.2905 17.6608 7.45574 16.9122 7.45574 15.9887C7.45574 15.0653 11.2903 14.3165 16.0204 14.3165C20.7504 14.3165 24.585 15.0653 24.585 15.9887C24.585 16.9122 20.7504 17.6608 16.0204 17.6608ZM25.6372 16.2674C25.6372 15.0766 21.3316 14.1113 16.0204 14.1113C10.7094 14.1113 6.40356 15.0766 6.40356 16.2674C6.40356 17.3161 9.74223 18.1898 14.1663 18.3834V26.0625H17.8054V18.3864C22.2636 18.1989 25.6372 17.3215 25.6372 16.2674Z" fill="white"/>
</svg>
